<?xml version="1.0" standalone="no"?><!-- Generator: Gravit.io --><svg xmlns="http://www.w3.org/2000/svg" xmlns:xlink="http://www.w3.org/1999/xlink" style="isolation:isolate" viewBox="922.806 498.3 24.388 24.401" width="24.388" height="24.401"><defs><clipPath id="_clipPath_NMlJzA9g1GAAswtclcH7EGBExyLvFQwM"><rect x="922.806" y="498.3" width="24.388" height="24.401"/></clipPath></defs><g clip-path="url(#_clipPath_NMlJzA9g1GAAswtclcH7EGBExyLvFQwM)"><path d=" M 927.841 507.914 L 932.42 503.334 L 933.215 504.131 L 931.144 506.203 L 931.721 506.78 L 933.793 504.707 L 934.354 505.269 L 933.341 506.282 L 933.919 506.86 L 934.932 505.847 L 935.589 506.504 L 933.518 508.575 L 934.095 509.153 L 936.167 507.082 L 936.728 507.642 L 935.715 508.655 L 936.292 509.233 L 937.306 508.22 L 937.963 508.877 L 935.892 510.95 L 936.469 511.528 L 938.541 509.455 L 939.102 510.017 L 938.089 511.03 L 938.666 511.608 L 939.68 510.595 L 939.811 510.726 L 935.232 515.304 L 927.841 507.914 Z  M 943.945 518.437 L 944.344 518.039 L 943.569 517.052 L 943.907 516.715 L 943.907 513.289 C 943.907 512.789 943.712 512.317 943.358 511.963 L 933.288 501.892 L 934.102 501.078 L 933.205 500.181 L 930.039 503.347 L 928.264 501.573 L 930.038 499.799 L 928.539 498.3 L 922.806 504.034 L 924.304 505.532 L 926.079 503.757 L 927.854 505.532 L 924.688 508.698 L 925.585 509.595 L 926.399 508.782 L 936.469 518.851 C 936.824 519.205 937.295 519.401 937.796 519.401 L 941.22 519.401 L 941.559 519.062 L 942.544 519.838 L 942.98 519.403 L 947.194 522.7 L 943.945 518.437 Z " fill="rgb(77,76,78)"/></g></svg>