<?xml version="1.0" encoding="UTF-8"?>
<!DOCTYPE svg PUBLIC "-//W3C//DTD SVG 1.1//EN" "http://www.w3.org/Graphics/SVG/1.1/DTD/svg11.dtd">
<svg version="1.1" xmlns="http://www.w3.org/2000/svg" xmlns:xlink="http://www.w3.org/1999/xlink" x="0" y="0" width="48" height="27" viewBox="0, 0, 48, 27">
  <g id="camera-alt">
    <path d="M27.2,14 C27.2,15.767 25.767,17.2 24,17.2 C22.233,17.2 20.8,15.767 20.8,14 C20.8,12.233 22.233,10.8 24,10.8 C25.767,10.8 27.2,12.233 27.2,14 z" fill="#000000"/>
    <path d="M21,4 L19.17,6 L16,6 C14.9,6 14,6.9 14,8 L14,20 C14,21.1 14.9,22 16,22 L32,22 C33.1,22 34,21.1 34,20 L34,8 C34,6.9 33.1,6 32,6 L28.83,6 L27,4 L21,4 z M24,19 C21.24,19 19,16.76 19,14 C19,11.24 21.24,9 24,9 C26.76,9 29,11.24 29,14 C29,16.76 26.76,19 24,19 z" fill="#000000"/>
  </g>
</svg>
