<?xml version="1.0" encoding="UTF-8"?>
<svg width="1280px" height="807px" viewBox="0 0 1280 807" version="1.1" xmlns="http://www.w3.org/2000/svg" xmlns:xlink="http://www.w3.org/1999/xlink">
    <!-- Generator: Sketch 50.2 (55047) - http://www.bohemiancoding.com/sketch -->
    <title>Group 7</title>
    <desc>Created with Sketch.</desc>
    <defs></defs>
    <g id="Page-1" stroke="none" stroke-width="1" fill="none" fill-rule="evenodd" stroke-linecap="round" stroke-linejoin="round">
        <g id="welcome-page" transform="translate(0.000000, -25.000000)" stroke="#66DEA1" stroke-width="60">
            <g id="Group-7" transform="translate(-21.000000, 55.000000)">
                <g id="icure-logo-copy" transform="translate(662.000000, 226.000000)">
                    <path d="M0.560046233,243.779107 C14.2826261,243.779107 26.1755286,234.628218 29.8348833,222.732062 L58.1948816,152.270215 L139.615522,495.428558 C142.360038,510.069981 155.167779,520.135959 169.805198,520.135959 C184.442616,520.135959 197.250357,509.154892 199.080035,494.513469 L310.690351,0.365455708 L395.770346,359.995399 C397.600023,372.806644 406.74841,381.957533 419.556151,384.702799 C432.363892,387.448066 444.256795,381.957533 451.575504,371.891555 L514.699371,243.779107 L774.51355,244.694196" id="Shape"></path>
                </g>
                <g id="icure-logo-copy-2" transform="translate(387.500000, 260.500000) scale(-1, 1) translate(-387.500000, -260.500000) ">
                    <path d="M0.560046233,243.779107 C14.2826261,243.779107 26.1755286,234.628218 29.8348833,222.732062 L58.1948816,152.270215 L139.615522,495.428558 C142.360038,510.069981 155.167779,520.135959 169.805198,520.135959 C184.442616,520.135959 197.250357,509.154892 199.080035,494.513469 L310.690351,0.365455708 L395.770346,359.995399 C397.600023,372.806644 406.74841,381.957533 419.556151,384.702799 C432.363892,387.448066 444.256795,381.957533 451.575504,371.891555 L514.699371,243.779107 L774.51355,244.694196" id="Shape"></path>
                </g>
            </g>
        </g>
    </g>
</svg>